<?xml version="1.0" standalone="no"?><!DOCTYPE svg PUBLIC "-//W3C//DTD SVG 1.1//EN" "http://www.w3.org/Graphics/SVG/1.1/DTD/svg11.dtd"><svg t="1631370803501" class="icon" viewBox="0 0 1024 1024" version="1.1" xmlns="http://www.w3.org/2000/svg" p-id="3241" xmlns:xlink="http://www.w3.org/1999/xlink" width="200" height="200"><defs><style type="text/css"></style></defs><path d="M512 1024c-42.496 0-74.24-53.248-97.28-162.816-19.456-93.696-30.72-217.6-30.72-349.184 0-131.584 10.752-255.488 30.72-349.184C437.76 53.248 469.504 0 512 0s74.24 53.248 97.28 162.816c19.456 93.696 30.72 217.6 30.72 349.184 0 131.584-10.752 255.488-30.72 349.184-23.04 109.568-54.784 162.816-97.28 162.816z m0-972.288c-4.608 3.072-28.16 24.064-49.664 133.632-17.408 88.576-27.136 204.8-27.136 326.656s9.728 238.08 27.136 326.656c21.504 109.568 45.056 130.56 49.664 133.632 4.608-3.072 28.16-24.064 49.664-133.632 17.408-88.576 27.136-204.8 27.136-326.656s-9.728-238.08-27.136-326.656c-21.504-109.568-45.056-130.56-49.664-133.632z" fill="#e6e6e6" p-id="3242"></path><path d="M889.856 796.16c-31.232 0-72.192-8.704-123.904-25.6-90.624-29.696-203.776-82.432-317.44-147.968-114.176-66.048-216.064-137.216-287.232-201.216C77.312 347.136 47.104 292.864 68.608 256c21.504-36.864 83.456-37.888 189.952-3.072 90.624 29.696 203.776 82.432 317.44 147.968 114.176 66.048 216.064 137.216 287.232 201.216 83.456 74.752 113.664 129.024 92.16 165.888-10.752 18.944-32.768 28.16-65.536 28.16zM113.152 281.6c0.512 5.632 6.656 36.352 90.624 110.08 68.096 59.392 163.84 125.952 269.312 186.88s210.944 110.592 296.448 139.776c105.472 36.352 135.68 26.112 140.8 23.552-0.512-5.632-6.656-36.352-90.624-110.08-68.096-59.392-163.84-125.952-269.312-186.88-105.472-60.416-210.944-110.08-296.448-139.264C148.48 269.312 118.272 279.552 113.152 281.6z" fill="#e6e6e6" p-id="3243"></path><path d="M134.144 796.16c-32.768 0-54.784-9.216-65.536-28.16-21.504-36.864 8.704-91.136 92.16-165.888 71.168-64 173.056-135.168 287.232-201.216 114.176-66.048 226.816-118.272 317.44-147.968 106.496-34.816 168.448-33.792 189.952 3.072 21.504 36.864-8.704 91.136-92.16 165.888-71.168 64-173.056 135.168-287.232 201.216s-226.816 118.272-317.44 147.968c-52.224 16.896-93.184 25.088-124.416 25.088zM113.152 742.4c5.12 2.56 34.816 12.288 140.8-23.552 85.504-29.184 190.976-78.848 296.448-139.776s201.216-127.488 269.312-186.88c83.968-73.216 90.624-104.448 90.624-110.08-5.12-2.56-34.816-12.288-140.8 23.552C684.032 334.848 578.56 384.512 473.088 445.44L460.8 423.424l12.8 22.016c-105.472 60.928-201.216 127.488-269.312 186.88-84.48 73.216-90.624 104.448-91.136 110.08z m0 0.512z" fill="#e6e6e6" p-id="3244"></path></svg>