<?xml version="1.0" standalone="no"?><!DOCTYPE svg PUBLIC "-//W3C//DTD SVG 1.1//EN" "http://www.w3.org/Graphics/SVG/1.1/DTD/svg11.dtd"><svg t="1631352694834" class="icon" viewBox="0 0 1024 1024" version="1.1" xmlns="http://www.w3.org/2000/svg" p-id="14081" xmlns:xlink="http://www.w3.org/1999/xlink" width="200" height="200"><defs><style type="text/css"></style></defs><path d="M670.6 838.7c0-11.9-8.5-22.1-19.6-22.1H374.6c-11.1 0-19.6 10.2-19.6 22.1v88.5H157.7v66.4H868v-66.4H670.6v-88.5zM956.5 30.5H68.4C31.8 30.5 2 60.3 2 96.9v621c0 36.6 29.8 66.4 66.4 66.4h887.3c36.6 0 66.4-29.8 66.4-66.4v-621c0.7-36.6-29-66.4-65.6-66.4z m0 665.2c0 11.9-10.2 22.1-22.1 22.1H90.5c-11.9 0-22.1-10.2-22.1-22.1V119c0-11.9 10.2-22.1 22.1-22.1h843c11.9 0 22.1 10.2 22.1 22.1l0.9 576.7z m-227.2-42.5h119.9V303.6H729.3v349.6z m-192.2 0H657V196.4H537.1v456.8z m-360.7 0h119.9V518.8H176.4v134.4z m168.4 0h119.9V411.6H344.8v241.6z" p-id="14082" fill="#e6e6e6"></path></svg>