<?xml version="1.0" standalone="no"?><!DOCTYPE svg PUBLIC "-//W3C//DTD SVG 1.1//EN" "http://www.w3.org/Graphics/SVG/1.1/DTD/svg11.dtd"><svg t="1631352359020" class="icon" viewBox="0 0 1024 1024" version="1.1" xmlns="http://www.w3.org/2000/svg" p-id="8987" xmlns:xlink="http://www.w3.org/1999/xlink" width="200" height="200"><defs><style type="text/css"></style></defs><path d="M928.697166 96.30982c-5.665284-5.665284-16.995851-5.665284-22.661134-5.665283-33.991701 11.330567-107.640387 0-130.301522-16.995851C668.094123 16.995851 583.11487 0 526.462034 0h-39.656984C418.821647 0 339.507678 22.661134 248.863141 73.648686c-33.991701 16.995851-96.30982 28.326418-135.966805 16.995851-5.665284 0-16.995851 0-22.661134 5.665283-5.665284 5.665284-11.330567 11.330567-11.330567 22.661134v271.93361c0 266.268326 175.62379 509.875519 413.565698 628.846473 5.665284 5.665284 16.995851 5.665284 22.661134 0 243.607192-113.305671 419.230982-362.578147 419.230982-628.846473V118.970954c5.665284-11.330567 0-16.995851-5.665283-22.661134z m-130.301522 515.540802c-11.330567 22.661134-22.661134 50.987552-39.656984 73.648686-67.983402 101.975104-152.962656 198.284924-249.272476 237.941909V509.875519H186.545022s-16.995851-62.318119-16.995851-147.297372V186.954357s33.991701-11.330567 79.31397-22.661134c45.322268-11.330567 96.30982-45.322268 141.632088-56.652836 62.318119-16.995851 113.305671-16.995851 113.305671-16.99585V509.875519c0-16.995851 0-16.995851 0 0h317.255878c11.330567 0-16.995851 96.30982-22.661134 101.975103z" p-id="8988" fill="#e6e6e6"></path></svg>