<?xml version="1.0" standalone="no"?><!DOCTYPE svg PUBLIC "-//W3C//DTD SVG 1.1//EN" "http://www.w3.org/Graphics/SVG/1.1/DTD/svg11.dtd"><svg t="1631352140217" class="icon" viewBox="0 0 1024 1024" version="1.1" xmlns="http://www.w3.org/2000/svg" p-id="6012" xmlns:xlink="http://www.w3.org/1999/xlink" width="200" height="200"><defs><style type="text/css"></style></defs><path d="M959 498.61c-0.68-15.16-12.4-28.36-28.21-28.2l-104.7 1-167 1.65-21.16 0.21L597.57 392l-6.73-13.56c-5-10-17.71-14.86-28.1-13.46-11.72 1.57-19.41 9.41-23.45 20.2q-14.35 38.31-28.7 76.63-17.86 47.65-35.72 95.33l-21.78-33.76c-7.51-11.63-14.89-23.36-22.53-34.91-6.25-9.44-15.2-14.67-26.42-14.79H168.59c-24.74 0-49.5-0.37-74.24 0h-1.12c-14.76 0-28.89 13-28.21 28.21s12.4 28.2 28.21 28.2h297.11l57.54 89.17 9.3 14.41c6.22 9.64 16.58 15 28.11 13.47 11.71-1.58 19.4-9.42 23.44-20.2l28.71-76.63q16.32-43.56 32.63-87.1l19.42 39.13q3.36 6.78 6.73 13.56c4.29 8.66 15 14.07 24.35 14l104.7-1 167-1.65 38.5-0.38c14.75-0.2 28.89-12.87 28.23-28.26z" fill="#e6e6e6" p-id="6013"></path><path d="M769.36 565.85L741 594.21l-67.73 67.72-81.88 81.88-71.07 71.07c-11.44 11.44-23.26 22.61-34.37 34.37l-0.49 0.49h42.43l-27.07-27.07-65.4-65.4-78.79-78.79-68.42-68.42c-11-11-21.83-22.32-33.1-33.1l-0.47-0.47c-11.11-11.11-31.46-11.94-42.42 0s-11.86 30.57 0 42.43L239.29 646l65.39 65.4 78.8 78.79 68.42 68.41c11 11 21.83 22.32 33.09 33.1l0.47 0.47c11.46 11.45 30.95 11.48 42.43 0l28.36-28.36L624 796.08l81.88-81.88 71.08-71.07c11.44-11.45 23.15-22.69 34.37-34.37l0.48-0.49c11.11-11.11 11.94-31.46 0-42.42s-30.57-11.86-42.42 0zM875.67 249c-26.32-33.87-62.5-58.57-102.23-74.07-76.44-29.85-166.56-15.5-231.16 34.41-12.64 9.77-24.2 20.77-35.49 32l-21.25-21.24c-26.86-26.87-59.13-47.1-95.62-58.08-83.37-25.02-177.22 3.37-232.64 70.49-35.78 43.34-56.07 96.59-56.91 152.94-0.24 15.7 14 30.72 30 30 16.45-0.74 29.75-13.18 30-30 0.11-7.39 0.6-14.74 1.43-22.08a215.94 215.94 0 0 1 12.57-46 211.81 211.81 0 0 1 18.11-32.65c1.73-2.55 3.53-5 5.35-7.51 1-1.2 1.95-2.41 2.95-3.6q6.21-7.39 13.07-14.2 6.5-6.45 13.6-12.28l0.82-0.69 1.1-0.82q3.47-2.55 7-4.93a192.28 192.28 0 0 1 27.39-15.14 195.24 195.24 0 0 1 41.59-11.42 196.09 196.09 0 0 1 43.05 0 195.78 195.78 0 0 1 41.43 11.35 191.44 191.44 0 0 1 31.68 18c1.19 0.84 2.35 1.71 3.53 2.56 2.51 2 5 4.11 7.4 6.27 3 2.67 5.88 5.44 8.72 8.27q16.24 16.21 32.45 32.45l10.66 10.66c0.44 0.47 0.89 0.93 1.37 1.37 11.11 11.11 31.46 11.94 42.42 0q15.92-15.92 31.82-31.83c3.43-3.42 6.93-6.76 10.56-10q3.76-3.33 7.69-6.48c1.45-1.06 2.9-2.13 4.37-3.17a211.45 211.45 0 0 1 35.35-20.07 215.42 215.42 0 0 1 47-12.82 217.08 217.08 0 0 1 47.67 0 215.27 215.27 0 0 1 47.21 12.91 211.74 211.74 0 0 1 26.83 14.43q3.92 2.49 7.71 5.14c1.61 1.13 7.09 5.4 6 4.43 3.58 2.93 7.09 5.92 10.49 9.07q6.72 6.23 12.86 13 3.38 3.75 6.55 7.67l1.29 1.62c0.52 0.76 1 1.53 1.54 2.26A190.85 190.85 0 0 1 851 323a196.19 196.19 0 0 1 11.37 41.49 203.56 203.56 0 0 1 1.24 20.95c0.11 15.69 13.72 30.73 30 30s30.12-13.18 30-30c-0.32-49.91-17.41-97.19-47.94-136.44z m-647-2.87a20.6 20.6 0 0 1 2.13-1.65z m600.85 40.55a21.22 21.22 0 0 1 1.73 2.22z" fill="#e6e6e6" p-id="6014"></path></svg>