<?xml version="1.0" standalone="no"?><!DOCTYPE svg PUBLIC "-//W3C//DTD SVG 1.1//EN" "http://www.w3.org/Graphics/SVG/1.1/DTD/svg11.dtd"><svg t="1631370963996" class="icon" viewBox="0 0 1024 1024" version="1.1" xmlns="http://www.w3.org/2000/svg" p-id="7804" xmlns:xlink="http://www.w3.org/1999/xlink" width="200" height="200"><defs><style type="text/css"></style></defs><path d="M960 413.866667c0-29.866667-12.8-64-68.266667-98.133334 42.666667-25.6 68.266667-59.733333 68.266667-98.133333C960 98.133333 729.6 42.666667 512 42.666667S64 98.133333 64 217.6c0 38.4 25.6 72.533333 68.266667 98.133333-55.466667 34.133333-68.266667 68.266667-68.266667 98.133334 0 38.4 25.6 72.533333 68.266667 98.133333-55.466667 34.133333-68.266667 68.266667-68.266667 98.133333 0 38.4 25.6 72.533333 68.266667 98.133334-55.466667 34.133333-68.266667 68.266667-68.266667 98.133333C64 925.866667 294.4 981.333333 512 981.333333s448-55.466667 448-174.933333c0-29.866667-12.8-64-68.266667-98.133333 42.666667-25.6 68.266667-59.733333 68.266667-98.133334 0-29.866667-12.8-64-68.266667-98.133333 42.666667-25.6 68.266667-59.733333 68.266667-98.133333zM512 128c238.933333 0 362.666667 64 362.666667 89.6 0 12.8-38.4 38.4-115.2 59.733333-12.8 4.266667-25.6 8.533333-38.4 8.533334-4.266667 0-8.533333 0-12.8 4.266666-17.066667 4.266667-34.133333 4.266667-51.2 8.533334h-8.533334c-21.333333 4.266667-38.4 4.266667-59.733333 4.266666H443.733333c-25.6 0-46.933333-4.266667-64-4.266666h-8.533333c-17.066667-4.266667-38.4-8.533333-55.466667-8.533334-4.266667 0-8.533333 0-12.8-4.266666-12.8-4.266667-25.6-8.533333-38.4-8.533334C187.733333 256 149.333333 230.4 149.333333 217.6 149.333333 192 273.066667 128 512 128z m0 264.533333c93.866667 0 187.733333-8.533333 268.8-29.866666 76.8 25.6 93.866667 51.2 93.866667 55.466666 0 12.8-38.4 38.4-115.2 59.733334-12.8 4.266667-25.6 8.533333-38.4 8.533333-4.266667 0-8.533333 0-12.8 4.266667-17.066667 4.266667-34.133333 4.266667-51.2 8.533333h-8.533334c-21.333333 4.266667-38.4 4.266667-59.733333 4.266667H443.733333c-21.333333 0-42.666667-4.266667-59.733333-4.266667h-8.533333c-17.066667-4.266667-34.133333-4.266667-51.2-8.533333-4.266667 0-8.533333 0-12.8-4.266667-12.8-4.266667-25.6-4.266667-38.4-8.533333-85.333333-25.6-123.733333-51.2-123.733334-64 0-4.266667 17.066667-29.866667 93.866667-55.466667 81.066667 21.333333 174.933333 34.133333 268.8 34.133333z m268.8 362.666667c76.8 25.6 93.866667 51.2 93.866667 55.466667 0 21.333333-123.733333 89.6-362.666667 89.6S149.333333 836.266667 149.333333 810.666667c0-4.266667 17.066667-29.866667 93.866667-55.466667 76.8 21.333333 174.933333 29.866667 264.533333 29.866667s192-12.8 273.066667-29.866667z m0-200.533333c76.8 25.6 93.866667 51.2 93.866667 55.466666 0 12.8-38.4 38.4-115.2 59.733334-12.8 4.266667-25.6 8.533333-38.4 8.533333-4.266667 0-8.533333 0-12.8 4.266667-17.066667 4.266667-34.133333 4.266667-51.2 8.533333h-8.533334c-21.333333 4.266667-38.4 4.266667-59.733333 4.266667H443.733333c-21.333333 0-42.666667-4.266667-59.733333-4.266667h-8.533333c-17.066667-4.266667-34.133333-4.266667-51.2-8.533333-4.266667 0-8.533333 0-12.8-4.266667-12.8-4.266667-25.6-4.266667-38.4-8.533333-76.8-21.333333-115.2-46.933333-115.2-59.733334 0-4.266667 17.066667-29.866667 93.866666-55.466666 76.8 21.333333 174.933333 29.866667 264.533334 29.866666s183.466667-8.533333 264.533333-29.866666z" p-id="7805" fill="#e6e6e6"></path></svg>