<?xml version="1.0" standalone="no"?><!DOCTYPE svg PUBLIC "-//W3C//DTD SVG 1.1//EN" "http://www.w3.org/Graphics/SVG/1.1/DTD/svg11.dtd"><svg t="1631351781955" class="icon" viewBox="0 0 1024 1024" version="1.1" xmlns="http://www.w3.org/2000/svg" p-id="2685" xmlns:xlink="http://www.w3.org/1999/xlink" width="200" height="200"><defs><style type="text/css"></style></defs><path d="M812.288 118.3744H231.424c-64.9728 0-117.6064 52.6336-117.6064 117.6064v439.3984c0 64.9728 52.6336 117.6064 117.6064 117.6064h580.864c64.9728 0 117.6064-52.6336 117.6064-117.6064V235.9808c0-64.9728-52.6848-117.6064-117.6064-117.6064z m-25.1904 432.2816h-121.9072c-17.0496 0-33.024-6.6048-45.056-18.688L490.1888 402.0224c-0.256-0.256-0.768-0.8192-1.9456-0.6656-1.1264 0.2048-1.536 0.8704-1.6896 1.2288l-59.136 113.7152a63.4368 63.4368 0 0 1-56.5248 34.304H256.6144c-16.9472 0-30.72-13.7728-30.72-30.72s13.7728-30.72 30.72-30.72h114.2784c0.8704 0 1.6384-0.4608 2.048-1.2288l59.136-113.7152c9.472-18.2272 26.5216-30.464 46.7968-33.5872 20.3264-3.1232 40.2432 3.3792 54.784 17.92l129.9456 129.9456c0.4096 0.4096 1.024 0.6656 1.5872 0.6656h121.9072c16.9472 0 30.72 13.7728 30.72 30.72s-13.7728 30.7712-30.72 30.7712zM722.5344 920.2176H321.1776c-16.9472 0-30.72-13.7728-30.72-30.72s13.7728-30.72 30.72-30.72h401.3568c16.9472 0 30.72 13.7728 30.72 30.72s-13.7728 30.72-30.72 30.72z" fill="#ffffff" p-id="2686"></path></svg>