<?xml version="1.0" standalone="no"?><!DOCTYPE svg PUBLIC "-//W3C//DTD SVG 1.1//EN" "http://www.w3.org/Graphics/SVG/1.1/DTD/svg11.dtd"><svg t="1631364850541" class="icon" viewBox="0 0 1024 1024" version="1.1" xmlns="http://www.w3.org/2000/svg" p-id="10137" xmlns:xlink="http://www.w3.org/1999/xlink" width="200" height="200"><defs><style type="text/css"></style></defs><path d="M907.636364 954.181818h-139.636364a46.545455 46.545455 0 0 1-46.545455-46.545454v-139.636364a46.545455 46.545455 0 0 1 46.545455-46.545455h46.545455v-139.636363h-279.272728v139.636363h46.545455a46.545455 46.545455 0 0 1 46.545454 46.545455v139.636364a46.545455 46.545455 0 0 1-46.545454 46.545454h-139.636364a46.545455 46.545455 0 0 1-46.545454-46.545454v-139.636364a46.545455 46.545455 0 0 1 46.545454-46.545455h46.545455v-139.636363h-279.272728v139.636363h46.545455a46.545455 46.545455 0 0 1 46.545455 46.545455v139.636364a46.545455 46.545455 0 0 1-46.545455 46.545454h-139.636364a46.545455 46.545455 0 0 1-46.545454-46.545454v-139.636364a46.545455 46.545455 0 0 1 46.545454-46.545455h46.545455v-186.181818h325.818182v-139.636363h-139.636364a46.545455 46.545455 0 0 1-46.545454-46.545455v-232.727273a46.545455 46.545455 0 0 1 46.545454-46.545454h325.818182a46.545455 46.545455 0 0 1 46.545454 46.545454v232.727273a46.545455 46.545455 0 0 1-46.545454 46.545455h-139.636364v139.636363h325.818182v186.181818h46.545455a46.545455 46.545455 0 0 1 46.545454 46.545455v139.636364a46.545455 46.545455 0 0 1-46.545454 46.545454z m-279.272728-605.090909a46.545455 46.545455 0 0 0 46.545455-46.545454v-139.636364a46.545455 46.545455 0 0 0-46.545455-46.545455h-232.727272a46.545455 46.545455 0 0 0-46.545455 46.545455v139.636364a46.545455 46.545455 0 0 0 46.545455 46.545454h232.727272z" fill="#e6e6e6" p-id="10138"></path></svg>